<?xml version="1.0" standalone="no"?>
<!DOCTYPE svg PUBLIC "-//W3C//DTD SVG 20010904//EN"
 "http://www.w3.org/TR/2001/REC-SVG-20010904/DTD/svg10.dtd">
<svg version="1.0" xmlns="http://www.w3.org/2000/svg"
 width="260.000000pt" height="260.000000pt" viewBox="0 0 260.000000 260.000000"
 preserveAspectRatio="xMidYMid meet">
<metadata>
Created by potrace 1.11, written by Peter Selinger 2001-2013
</metadata>
<g transform="translate(0.000000,260.000000) scale(0.100000,-0.100000)"
fill="#000000" stroke="none">
<path d="M0 1654 c0 -884 1 -946 17 -933 15 13 15 12 0 -12 -15 -23 -17 -57
-16 -267 0 -142 4 -242 10 -242 5 0 9 4 9 8 0 10 65 42 85 42 31 0 7 -24 -74
-75 -27 -17 -31 -28 -31 -87 0 -63 0 -63 33 -47 21 10 21 10 3 -5 -11 -9 -23
-16 -28 -16 -4 0 -8 -4 -8 -10 0 -6 35 -10 85 -10 l84 0 27 38 c14 20 24 29
21 20 -4 -10 -2 -18 3 -18 14 0 12 -27 -3 -33 -6 -3 5 -6 26 -6 20 -1 37 2 37
7 0 4 9 13 21 20 18 12 23 11 36 -7 21 -30 57 -26 86 9 26 31 64 33 52 2 -4
-12 -3 -13 9 -3 18 15 56 5 56 -15 0 -8 5 -14 10 -14 6 0 10 5 10 12 0 9 3 9
12 0 14 -14 878 -18 878 -3 0 13 80 29 121 24 28 -4 42 1 67 22 27 23 31 33
34 82 4 72 22 86 68 53 21 -15 48 -24 72 -24 22 -1 43 -7 47 -15 5 -8 16 -11
26 -7 29 11 9 -40 -30 -80 -19 -19 -35 -42 -34 -52 0 -14 2 -14 9 3 l9 20 1
-20 c1 -19 2 -19 14 -3 7 10 16 15 19 11 4 -3 7 7 7 23 0 30 43 84 67 84 6 0
9 9 6 20 -7 25 3 25 52 1 37 -18 81 -19 97 -3 4 4 1 29 -7 54 -13 46 -46 207
-47 238 0 8 -4 20 -9 25 -8 11 41 12 59 1 8 -4 10 -2 6 7 -3 10 6 19 28 28 18
7 36 14 40 16 3 2 9 -5 13 -16 8 -27 29 -33 96 -25 53 6 59 9 68 37 6 17 10
31 9 32 -2 1 -28 18 -59 37 -41 26 -58 44 -62 64 -3 16 -14 38 -24 50 -40 45
-43 59 -22 100 31 63 25 67 -43 33 -35 -18 -68 -38 -74 -47 -6 -9 -30 -15 -61
-17 -57 -3 -77 -11 -69 -30 5 -15 -20 -28 -35 -19 -25 15 -62 11 -66 -7 -5
-16 -11 -18 -39 -13 -37 7 -84 -16 -84 -40 0 -16 -21 -26 -55 -26 -13 0 -30
-8 -37 -18 -7 -10 -32 -29 -55 -42 -24 -13 -43 -27 -43 -32 0 -4 -11 -8 -25
-8 -13 0 -42 -6 -62 -14 -21 -8 -70 -24 -110 -35 -39 -12 -73 -25 -75 -29 -4
-9 -88 -55 -88 -48 0 2 7 12 16 20 27 28 -8 19 -57 -14 -30 -20 -51 -27 -67
-23 -12 3 -33 -2 -47 -11 -16 -10 -34 -14 -50 -10 -33 8 -44 -19 -19 -47 18
-20 18 -21 0 -35 -41 -30 -49 21 -13 88 15 30 22 61 22 101 l0 58 93 69 c91
67 93 68 125 55 17 -7 33 -18 35 -24 5 -15 33 -14 73 3 32 13 32 14 9 18 -27
4 -33 0 97 60 74 34 73 46 -6 44 -84 -1 -105 12 -75 46 19 23 19 23 -1 7 -18
-13 -52 -16 -119 -10 -7 0 -34 18 -60 38 -71 59 -59 93 34 93 76 0 101 19 98
71 -2 30 -7 39 -21 39 -10 0 -15 -4 -12 -10 13 -22 -52 -5 -83 22 -18 15 -41
28 -52 28 -25 0 -34 16 -21 37 10 17 10 17 11 1 0 -23 9 -23 26 0 7 9 18 17
26 17 7 0 15 13 18 29 l5 29 35 -33 c36 -34 30 -51 -10 -30 -18 10 -22 9 -27
-9 -3 -12 -9 -21 -14 -21 -17 0 -9 -29 11 -40 11 -6 20 -8 20 -4 0 3 6 1 14
-5 24 -20 101 5 116 37 6 14 20 32 30 39 11 8 16 20 13 32 -5 19 35 86 45 76
3 -3 -3 -14 -13 -25 -18 -20 -18 -21 1 -40 10 -11 45 -25 77 -31 51 -11 60
-10 75 4 21 22 21 86 -1 102 -23 17 -21 25 6 25 12 0 41 9 64 20 l42 19 13
-26 c19 -39 31 -38 81 6 25 21 51 41 57 43 6 2 13 21 16 43 4 23 17 50 30 63
13 13 24 34 24 47 0 18 5 25 20 25 14 0 18 -5 13 -17 -7 -17 -6 -17 11 -1 22
23 14 37 -19 30 -19 -3 -25 0 -25 14 0 11 4 24 8 30 9 15 64 15 59 0 -5 -15
23 -35 51 -36 12 0 22 -5 22 -11 0 -6 -9 -9 -20 -6 -11 3 -20 1 -20 -4 0 -5
-8 -9 -17 -10 -14 0 -15 -2 -3 -6 8 -4 21 -12 28 -19 11 -11 17 -11 38 2 33
22 23 -4 -11 -29 -24 -17 -24 -17 -19 0 4 12 0 11 -13 -6 -10 -13 -43 -48 -73
-77 -78 -77 -49 -66 45 17 82 72 132 105 143 94 3 -3 1 -14 -6 -25 -6 -11 -8
-22 -3 -25 13 -8 42 5 35 16 -3 5 -10 6 -16 3 -7 -4 -8 -2 -4 4 8 14 46 -6 46
-24 0 -7 9 -10 23 -7 18 4 19 3 7 -6 -12 -8 -8 -11 20 -12 19 -1 27 -3 17 -6
-22 -6 -12 -23 14 -23 21 0 26 -16 6 -23 -9 -4 -9 -6 1 -6 8 -1 16 8 19 19 4
15 11 18 37 13 37 -7 66 -30 50 -41 -6 -4 -11 -15 -11 -24 0 -15 3 -15 25 3
33 25 52 25 22 -1 -21 -18 -21 -20 -4 -20 17 0 16 -2 -4 -16 -12 -8 -22 -20
-22 -26 0 -6 15 1 34 16 24 18 37 23 42 14 4 -7 3 -8 -4 -4 -6 3 -16 -3 -22
-14 -12 -22 -1 -27 18 -8 7 7 12 8 12 2 0 -12 47 -17 55 -5 5 10 80 -22 90
-39 3 -5 15 -10 26 -10 19 0 19 14 19 700 l0 700 -1300 0 -1300 0 0 -946z
m1680 596 c0 -5 -4 -11 -9 -14 -5 -3 -12 -32 -16 -63 -9 -72 -65 -173 -95
-170 -23 1 -25 10 -9 39 8 15 8 19 0 14 -6 -4 -11 -3 -11 3 0 6 9 15 21 22 14
7 19 17 16 30 -3 13 0 22 10 26 12 5 12 7 1 14 -10 7 -11 12 0 29 6 11 12 29
12 40 0 11 6 20 14 20 7 0 19 6 26 14 11 15 40 11 40 -4z m-255 -226 c11 -17
12 -25 4 -22 -6 2 -16 14 -20 26 -11 29 -5 28 16 -4z m80 -49 c-43 -35 -57
-33 -33 5 7 11 24 20 38 20 l25 0 -30 -25z m-1125 -148 c0 -2 -9 -12 -21 -23
-15 -14 -20 -15 -17 -4 2 8 8 18 13 22 10 8 25 10 25 5z m-81 -11 c-12 -10
-60 -16 -54 -6 3 5 18 10 32 10 15 0 24 -2 22 -4z m18 -33 c-3 -3 -11 -2 -17
2 -9 6 -9 10 1 16 14 8 27 -7 16 -18z m1500 21 c-3 -3 -12 -4 -19 -1 -8 3 -5
6 6 6 11 1 17 -2 13 -5z m120 -40 c-3 -3 -12 -4 -19 -1 -8 3 -5 6 6 6 11 1 17
-2 13 -5z m-1397 -18 c0 -2 -7 -6 -15 -10 -8 -3 -15 -1 -15 4 0 6 7 10 15 10
8 0 15 -2 15 -4z m-52 -27 c2 -12 -6 -18 -30 -22 -41 -6 -43 -4 -26 22 15 25
51 24 56 0z m32 -23 c0 -3 -4 -8 -10 -11 -5 -3 -10 -1 -10 4 0 6 5 11 10 11 6
0 10 -2 10 -4z m0 -36 c0 -5 -8 -10 -17 -10 -15 0 -16 2 -3 10 19 12 20 12 20
0z m1302 -11 c10 -5 18 -14 18 -20 0 -5 -11 -2 -25 7 -16 11 -46 17 -81 17
-36 0 -51 3 -42 9 15 10 103 2 130 -13z m417 -26 c-12 -16 -44 -56 -72 -91
-27 -35 -52 -61 -54 -58 -5 5 136 176 144 176 3 0 -5 -12 -18 -27z m-1919 7
c-20 -13 -33 -13 -25 0 3 6 14 10 23 10 15 0 15 -2 2 -10z m87 4 c-3 -3 -12
-4 -19 -1 -8 3 -5 6 6 6 11 1 17 -2 13 -5z m1558 -4 c3 -5 -1 -10 -10 -10 -9
0 -13 5 -10 10 3 6 8 10 10 10 2 0 7 -4 10 -10z m-1605 -10 c0 -5 -8 -10 -17
-10 -15 0 -16 2 -3 10 19 12 20 12 20 0z m43 -27 c-7 -2 -19 -2 -25 0 -7 3 -2
5 12 5 14 0 19 -2 13 -5z m132 -23 c-3 -5 -13 -10 -21 -10 -8 0 -14 5 -14 10
0 6 9 10 21 10 11 0 17 -4 14 -10z m1474 7 c-10 -9 -59 -17 -59 -9 0 4 14 9
32 10 18 2 30 1 27 -1z m-979 -22 c6 -8 8 -19 4 -26 -5 -8 -12 -5 -24 11 l-17
23 -77 -28 c-42 -15 -79 -32 -82 -37 -3 -4 -10 -6 -15 -3 -15 10 8 41 43 58
43 21 151 23 168 2z m-795 -5 c4 -6 -7 -10 -27 -10 -25 0 -29 3 -18 10 19 13
37 13 45 0z m233 -32 c-3 -7 -20 -14 -39 -16 l-34 -2 25 15 c31 18 53 19 48 3z
m47 -8 c-3 -5 -10 -10 -16 -10 -5 0 -9 5 -9 10 0 6 7 10 16 10 8 0 12 -4 9
-10z m35 1 c0 -15 -48 -42 -55 -31 -3 6 1 10 10 10 8 0 18 7 21 15 7 16 24 21
24 6z m-160 -21 c0 -5 -2 -10 -4 -10 -3 0 -8 5 -11 10 -3 6 -1 10 4 10 6 0 11
-4 11 -10z m1590 0 c0 -5 -2 -10 -4 -10 -3 0 -8 5 -11 10 -3 6 -1 10 4 10 6 0
11 -4 11 -10z m-1390 -10 c8 -5 11 -10 5 -10 -5 0 -3 -5 5 -11 12 -9 11 -10
-5 -4 -11 4 -26 10 -34 13 -10 4 -12 1 -6 -8 6 -9 4 -11 -5 -5 -9 6 -10 2 -5
-16 4 -13 12 -27 18 -30 9 -6 -12 -11 -112 -25 -25 -3 -54 -12 -64 -19 -18
-12 -24 -12 -47 5 -15 11 -30 16 -34 13 -4 -4 -4 1 0 11 5 13 4 17 -3 13 -6
-4 -16 0 -23 8 -10 12 -9 15 7 15 10 0 28 6 38 14 14 10 23 11 36 3 13 -8 25
-8 44 1 32 15 45 15 45 1 0 -6 -7 -9 -15 -5 -8 3 -15 2 -15 -3 0 -5 -15 -12
-32 -16 -25 -6 -28 -9 -13 -12 11 -2 52 8 90 22 39 13 66 25 60 25 -9 1 34 29
45 29 3 1 12 -4 20 -9z m-210 -15 c9 -10 9 -15 1 -15 -6 0 -11 4 -11 9 0 5
-10 12 -22 14 -22 4 -22 4 -2 6 12 0 27 -6 34 -14z m100 5 c0 -5 -4 -10 -10
-10 -5 0 -10 5 -10 10 0 6 5 10 10 10 6 0 10 -4 10 -10z m746 -45 c9 -23 -16
-85 -34 -85 -22 0 -34 9 -55 43 -17 27 -17 27 5 36 13 4 30 11 38 14 26 10 40
7 46 -8z m-611 -14 c9 -15 -24 -41 -53 -42 l-27 -1 30 -9 c19 -5 31 -5 33 1 2
6 12 10 23 10 10 0 19 5 19 11 0 6 7 3 17 -6 14 -14 14 -18 2 -26 -11 -7 -8
-9 9 -9 13 0 21 -4 18 -8 -2 -4 7 -9 21 -10 27 -2 53 -18 53 -33 0 -16 34 -49
51 -49 25 0 33 -42 11 -60 -10 -8 -18 -25 -19 -37 0 -13 -1 -29 -2 -37 0 -8
-9 -17 -19 -20 -11 -4 -24 -16 -31 -29 -14 -27 -87 -70 -103 -61 -6 4 -8 3 -5
-3 7 -11 -43 -54 -75 -66 -19 -7 -21 12 -3 26 6 5 -1 7 -16 4 -22 -3 -25 0
-21 15 5 22 11 22 38 4 12 -8 31 -12 42 -9 31 8 27 23 -5 17 -14 -3 -29 0 -33
7 -4 6 -38 12 -79 13 -39 2 -74 5 -77 8 -3 3 10 16 28 28 41 28 58 49 58 69 0
9 -3 12 -8 6 -10 -14 -122 -19 -122 -6 0 6 16 11 35 11 22 0 38 6 41 15 4 8
11 15 18 15 15 1 60 39 53 46 -3 3 -16 -3 -28 -15 -25 -23 -55 -29 -43 -8 6
10 4 10 -7 0 -18 -18 -27 -16 -25 5 0 9 10 22 21 29 19 12 18 12 -7 13 -31 0
-36 11 -13 30 8 7 12 17 9 22 -8 13 15 28 41 27 16 -1 16 -2 -5 -9 l-25 -8 27
-1 c37 -1 45 17 11 25 -25 7 -25 8 -8 15 28 11 37 11 31 0 -3 -5 1 -11 9 -15
8 -3 17 -1 20 4 4 6 25 10 48 11 36 0 39 2 19 10 -13 5 -29 6 -34 2 -7 -3 -8
-1 -4 6 8 13 -66 5 -96 -10 -23 -12 -108 -11 -108 1 0 5 17 12 38 16 34 6 81
18 184 46 21 6 35 14 32 19 -3 5 -3 9 0 9 3 0 7 -4 11 -9z m910 -78 l30 -14
-30 6 c-36 8 -62 30 -82 70 -13 27 -11 26 19 -9 17 -21 46 -45 63 -53z m-1257
14 c-7 -8 -21 -12 -31 -9 -15 4 -16 7 -5 13 7 5 21 9 31 9 14 0 15 -3 5 -13z
m-38 -47 c13 -8 13 -10 -2 -10 -9 0 -20 5 -23 10 -8 13 5 13 25 0z m167 4 c-3
-3 -12 -4 -19 -1 -8 3 -5 6 6 6 11 1 17 -2 13 -5z m-117 -24 c-6 -11 -15 -20
-20 -20 -6 0 -5 9 2 20 7 11 16 20 21 20 4 0 3 -9 -3 -20z m44 2 c3 -5 -1 -9
-9 -9 -8 0 -12 4 -9 9 3 4 7 8 9 8 2 0 6 -4 9 -8z m86 -3 c0 -5 -5 -7 -12 -3
-8 5 -9 2 -5 -10 9 -22 -12 -30 -44 -17 l-24 10 25 1 c14 1 19 4 11 7 -11 5
-11 7 0 14 19 12 49 11 49 -2z m824 -125 c5 -14 4 -15 -9 -4 -17 14 -19 20 -6
20 5 0 12 -7 15 -16z m-934 -63 c0 -6 -4 -13 -10 -16 -5 -3 -10 1 -10 9 0 9 5
16 10 16 6 0 10 -4 10 -9z m560 -35 c0 -2 -7 -9 -15 -16 -13 -11 -14 -10 -9 4
5 14 24 23 24 12z m240 -57 c0 -5 5 -7 10 -4 6 3 10 2 10 -4 0 -5 17 -8 40 -6
41 4 63 -11 39 -26 -8 -5 -31 -8 -53 -6 -29 1 -43 9 -58 30 -16 23 -17 27 -4
27 9 0 16 -5 16 -11z m-690 -9 c0 -5 -5 -10 -11 -10 -5 0 -7 5 -4 10 3 6 8 10
11 10 2 0 4 -4 4 -10z m-326 -25 c-4 -8 -14 -15 -23 -15 -14 1 -13 3 3 15 25
19 27 19 20 0z m136 -2 c0 -10 61 -10 78 0 6 5 12 4 12 -2 0 -5 -8 -12 -19
-16 -10 -3 -27 -15 -37 -28 -18 -21 -18 -21 0 -7 17 13 18 13 15 -5 -3 -12
-14 -21 -29 -23 -14 -2 -44 -12 -67 -23 -53 -23 -53 -23 -53 0 0 11 -8 21 -17
24 -13 3 -8 9 20 21 30 13 37 21 32 36 -4 14 0 20 17 23 39 7 48 7 48 0z m117
-88 c2 -6 -10 -18 -26 -28 -17 -10 -33 -27 -36 -38 -4 -11 -9 -18 -12 -16 -2
3 0 15 7 26 16 31 5 26 -47 -24 -53 -51 -67 -56 -53 -19 16 41 13 41 -42 -9
-29 -27 -34 -13 -8 23 26 36 75 64 101 57 11 -3 22 0 26 5 3 7 1 8 -5 4 -7 -4
-12 -4 -12 -1 0 10 64 35 84 32 11 -1 21 -7 23 -12z m-87 -114 c0 -13 -31 -43
-38 -37 -3 3 3 15 13 26 20 22 25 24 25 11z m-189 -70 c-6 -11 -21 -26 -34
-32 -12 -6 -20 -9 -17 -6 25 31 56 63 58 61 2 -1 -1 -12 -7 -23z m108 -7 c-16
-20 -49 -37 -49 -26 0 16 54 64 58 53 2 -7 -2 -19 -9 -27z m951 -11 c0 -5 -39
-37 -86 -72 -69 -52 -87 -62 -95 -50 -5 8 -9 19 -9 26 0 7 -8 17 -17 22 -17
10 -17 10 0 11 9 0 17 -4 17 -9 0 -14 69 8 101 32 16 11 25 25 22 30 -4 6 0 8
10 4 9 -3 19 -2 22 3 7 12 35 13 35 3z m-225 -13 c-3 -5 1 -10 9 -10 9 0 16
-7 16 -15 0 -17 -23 -20 -51 -5 -25 14 -24 28 4 33 12 2 23 5 25 6 2 0 0 -3
-3 -9z m905 -386 c0 -2 -13 2 -30 11 -16 9 -30 18 -30 21 0 2 14 -2 30 -11 17
-9 30 -18 30 -21z m-1640 -134 c0 -5 -7 -10 -16 -10 -8 0 -12 5 -9 10 3 6 10
10 16 10 5 0 9 -4 9 -10z m133 -33 c4 3 7 1 7 -6 0 -7 5 -9 10 -6 6 4 18 4 27
1 13 -5 6 -14 -28 -39 -51 -37 -51 -38 -55 -14 -2 15 0 16 14 6 9 -7 7 -2 -5
11 -17 18 -19 26 -10 41 7 12 15 15 23 9 6 -6 14 -7 17 -3z m90 -67 c-6 -23
-33 -27 -33 -6 0 13 13 23 32 25 3 1 4 -8 1 -19z"/>
<path d="M330 1405 c-11 -13 -10 -14 4 -9 9 3 16 10 16 15 0 13 -6 11 -20 -6z"/>
<path d="M618 1343 c7 -3 16 -2 19 1 4 3 -2 6 -13 5 -11 0 -14 -3 -6 -6z"/>
<path d="M625 1253 c-11 -3 -25 -10 -32 -15 -7 -5 -21 -7 -33 -3 -11 4 -20 2
-20 -4 0 -6 16 -11 35 -11 19 0 35 4 35 9 0 6 8 10 18 9 9 0 31 5 47 10 l30
10 -30 0 c-16 0 -39 -3 -50 -5z"/>
<path d="M475 1040 c-3 -6 1 -7 9 -4 18 7 21 14 7 14 -6 0 -13 -4 -16 -10z"/>
<path d="M540 1016 c7 -7 13 -7 20 0 6 6 3 10 -10 10 -13 0 -16 -4 -10 -10z"/>
<path d="M175 920 c-3 -5 -1 -10 4 -10 6 0 11 5 11 10 0 6 -2 10 -4 10 -3 0
-8 -4 -11 -10z"/>
<path d="M1935 1520 c-3 -5 -1 -10 4 -10 6 0 11 5 11 10 0 6 -2 10 -4 10 -3 0
-8 -4 -11 -10z"/>
<path d="M1980 1360 c-25 -21 -43 -41 -40 -43 6 -6 96 71 90 77 -3 2 -25 -13
-50 -34z"/>
<path d="M2252 1340 c-6 -11 -8 -21 -3 -25 5 -3 13 4 16 16 9 28 2 33 -13 9z"/>
<path d="M1899 1293 c-13 -16 -12 -17 4 -4 9 7 17 15 17 17 0 8 -8 3 -21 -13z"/>
<path d="M2245 1290 c4 -6 11 -8 16 -5 14 9 11 15 -7 15 -8 0 -12 -5 -9 -10z"/>
<path d="M1790 1270 c-9 -6 -10 -10 -3 -10 6 0 15 5 18 10 8 12 4 12 -15 0z"/>
<path d="M1856 1254 c-20 -19 -20 -25 -2 -18 8 3 17 12 20 20 7 18 1 18 -18
-2z"/>
<path d="M1748 1252 c-18 -3 -26 -32 -9 -32 10 0 36 29 30 33 -2 2 -12 2 -21
-1z"/>
<path d="M2252 1248 c-14 -14 -16 -28 -3 -28 5 0 11 9 14 20 6 23 5 24 -11 8z"/>
<path d="M1757 1183 c-31 -24 -62 -54 -68 -66 -9 -20 -9 -20 4 -4 8 9 18 17
23 17 5 0 31 23 59 50 27 28 48 50 45 49 -3 0 -31 -21 -63 -46z"/>
<path d="M1705 1210 c3 -5 8 -10 11 -10 2 0 4 5 4 10 0 6 -5 10 -11 10 -5 0
-7 -4 -4 -10z"/>
<path d="M1593 1035 c-20 -17 -23 -24 -12 -25 14 0 59 34 59 45 0 12 -21 3
-47 -20z"/>
</g>
</svg>
